<svg width="96" height="96" viewBox="0 0 96 96" fill="none" xmlns="http://www.w3.org/2000/svg">
<mask id="mask0_85_117" style="mask-type:luminance" maskUnits="userSpaceOnUse" x="0" y="0" width="96" height="96">
<path d="M96 0H0V96H96V0Z" fill="white"/>
</mask>
<g mask="url(#mask0_85_117)">
<mask id="mask1_85_117" style="mask-type:luminance" maskUnits="userSpaceOnUse" x="0" y="0" width="96" height="96">
<path d="M96 0H0V96H96V0Z" fill="white"/>
</mask>
<g mask="url(#mask1_85_117)">
<mask id="mask2_85_117" style="mask-type:alpha" maskUnits="userSpaceOnUse" x="0" y="0" width="96" height="96">
<path d="M51.0017 1.29101C49.2239 -0.0423182 46.7794 -0.042317 45.0017 1.29102L2.33545 33.2907C-0.331218 35.2907 -0.331218 39.2907 2.33545 41.2907L23.521 57.1798L14.5738 63.8903C11.9071 65.8903 11.9071 69.8903 14.5738 71.8903L45.0001 94.71C46.7778 96.0433 49.2223 96.0433 51.0001 94.71L93.6662 62.7104C96.3329 60.7104 96.3329 56.7104 93.6662 54.7104L72.4807 38.8212L81.428 32.1108C84.0946 30.1108 84.0946 26.1108 81.428 24.1108L51.0017 1.29101Z" fill="white"/>
</mask>
<g mask="url(#mask2_85_117)">
<path d="M9.24023 67.8902L60.2397 29.6406L98.9994 58.7103L47.9999 96.9599L9.24023 67.8902Z" fill="url(#paint0_linear_85_117)"/>
<path d="M23.5195 57.1803L60.2392 29.6406L98.9988 58.7103L65.2792 84C63.5014 85.3333 61.0569 85.3334 59.2792 84L23.5195 57.1803Z" fill="url(#paint1_linear_85_117)"/>
<g filter="url(#filter0_f_85_117)">
<path d="M-2.99805 37.6905L48.0015 -0.559082L86.7611 28.5106L38.7616 64.5102C36.9838 65.8436 34.5394 65.8436 32.7616 64.5102L-2.99805 37.6905Z" fill="black" fill-opacity="0.24"/>
</g>
<g filter="url(#filter1_f_85_117)">
<path d="M-2.99805 39.2907L48.0015 1.04102L86.7611 30.1108L38.7616 66.1104C36.9838 67.4437 34.5394 67.4437 32.7616 66.1104L-2.99805 39.2907Z" fill="black" fill-opacity="0.32"/>
</g>
<path d="M-2.99805 37.2907L48.0015 -0.958984L86.7611 28.1108L38.7616 64.1104C36.9838 65.4437 34.5394 65.4437 32.7616 64.1104L-2.99805 37.2907Z" fill="url(#paint2_linear_85_117)"/>
<path d="M-2.99805 37.2898L30.7216 12C32.4994 10.6667 34.9438 10.6667 36.7216 12L72.4812 38.8198L38.7616 64.1095C36.9838 65.4428 34.5394 65.4428 32.7616 64.1095L-2.99805 37.2898Z" fill="url(#paint3_linear_85_117)"/>
</g>
</g>
</g>
<defs>
<filter id="filter0_f_85_117" x="-3.79805" y="-1.35908" width="91.3593" height="67.6693" filterUnits="userSpaceOnUse" color-interpolation-filters="sRGB">
<feFlood flood-opacity="0" result="BackgroundImageFix"/>
<feBlend mode="normal" in="SourceGraphic" in2="BackgroundImageFix" result="shape"/>
<feGaussianBlur stdDeviation="0.4" result="effect1_foregroundBlur_85_117"/>
</filter>
<filter id="filter1_f_85_117" x="-10.998" y="-6.95898" width="105.759" height="82.0693" filterUnits="userSpaceOnUse" color-interpolation-filters="sRGB">
<feFlood flood-opacity="0" result="BackgroundImageFix"/>
<feBlend mode="normal" in="SourceGraphic" in2="BackgroundImageFix" result="shape"/>
<feGaussianBlur stdDeviation="4" result="effect1_foregroundBlur_85_117"/>
</filter>
<linearGradient id="paint0_linear_85_117" x1="17.3997" y1="2.10086" x2="43.0799" y2="94.0143" gradientUnits="userSpaceOnUse">
<stop stop-color="#A391E8"/>
<stop offset="1" stop-color="#685CD0"/>
</linearGradient>
<linearGradient id="paint1_linear_85_117" x1="94" y1="86.0005" x2="76.5" y2="35.5006" gradientUnits="userSpaceOnUse">
<stop stop-color="#38389F"/>
<stop offset="1" stop-color="#4B44C0"/>
</linearGradient>
<linearGradient id="paint2_linear_85_117" x1="35.2102" y1="-12.4821" x2="60.0759" y2="60.2956" gradientUnits="userSpaceOnUse">
<stop stop-color="#DBCEF8"/>
<stop offset="1" stop-color="#C0AFF1"/>
</linearGradient>
<linearGradient id="paint3_linear_85_117" x1="21.9912" y1="-3.25486" x2="48.766" y2="92.3692" gradientUnits="userSpaceOnUse">
<stop stop-color="#C0AFF1"/>
<stop offset="1" stop-color="#8675DD"/>
</linearGradient>
</defs>
</svg>
