<svg width="88" height="92" viewBox="0 0 88 92" fill="none" xmlns="http://www.w3.org/2000/svg">
<mask id="mask0_85_131" style="mask-type:alpha" maskUnits="userSpaceOnUse" x="0" y="0" width="88" height="92">
<path d="M32.8934 0H72.4123C83.4723 0 90.6971 11.5445 85.948 21.4644L86.6828 20L72.948 47.4696C72.9088 47.5513 72.8688 47.6329 72.8281 47.7144L70.6828 52L72.8287 47.7082C70.2878 52.79 65.0938 56 59.4123 56H35.6828L18.8821 89.6014C17.5639 92.2378 13.8017 92.2378 12.4835 89.6014L0.748037 66.1305C-0.321653 63.9911 -0.184564 61.6781 0.781276 59.803L13.7055 33.9545C14.9173 31.5309 17.3944 30 20.1041 30H69.6251C67.0031 27.5491 63.4663 26 59.4147 26H23.4703C20.8113 26 19.0819 23.2017 20.271 20.8234L29.6941 1.97728C30.3 0.76547 31.5385 0 32.8934 0Z" fill="white"/>
</mask>
<g mask="url(#mask0_85_131)">
<path d="M7.00899 56H35.6828L18.8821 89.6014C17.5639 92.2378 13.8017 92.2378 12.4835 89.6014L0.748045 66.1305C-1.57912 61.4762 1.80535 56 7.00899 56Z" fill="url(#paint0_linear_85_131)"/>
<path d="M32.8932 0H72.4121C83.5628 0 90.8153 11.7347 85.8285 21.7082L72.9478 47.4696C72.9086 47.5513 72.8687 47.6329 72.8279 47.7144L70.6826 52L72.9478 47.4696C77.7018 37.5494 70.4772 26 59.4146 26H23.4702C20.8112 26 19.0817 23.2017 20.2709 20.8234L29.6939 1.97728C30.2998 0.76547 31.5383 0 32.8932 0Z" fill="url(#paint1_linear_85_131)"/>
<path d="M32.8932 0H72.4121C83.5628 0 90.8153 11.7347 85.8285 21.7082L72.9192 47.5268C72.8888 47.5896 72.8579 47.6523 72.8266 47.7149L71.6826 50L72.9192 47.5268C77.7285 37.5939 70.4975 26 59.4135 26H23.4702C20.8112 26 19.0817 23.2017 20.2709 20.8234L29.6939 1.97728C30.2998 0.76547 31.5383 0 32.8932 0Z" fill="url(#paint2_linear_85_131)"/>
<g filter="url(#filter0_f_85_131)">
<path d="M59.4121 56.3999H7.10388C4.39477 56.3999 1.91812 57.9302 0.706055 60.353L13.7053 34.3545C14.9171 31.9309 17.3942 30.3999 20.1039 30.3999H72.409C78.083 30.3999 83.2713 27.1985 85.8159 22.1272L86.6826 20.3999L72.8285 48.1081C70.2876 53.1899 65.0937 56.3999 59.4121 56.3999Z" fill="black" fill-opacity="0.24"/>
</g>
<g filter="url(#filter1_f_85_131)">
<path d="M59.4121 58H7.10388C4.39477 58 1.91812 59.5303 0.706055 61.9531L13.7053 35.9545C14.9171 33.5309 17.3942 32 20.1039 32H72.409C78.083 32 83.2713 28.7985 85.8159 23.7272L86.6826 22L72.8285 49.7082C70.2876 54.79 65.0937 58 59.4121 58Z" fill="black" fill-opacity="0.32"/>
</g>
<path d="M59.4121 56H7.10388C4.39477 56 1.91812 57.5303 0.706055 59.9531L13.7053 33.9545C14.9171 31.5309 17.3942 30 20.1039 30H72.409C78.083 30 83.2713 26.7985 85.8159 21.7272L86.6826 20L72.8285 47.7082C70.2876 52.79 65.0937 56 59.4121 56Z" fill="url(#paint3_linear_85_131)"/>
<path opacity="0.7" d="M59.3834 56H7.14275C4.43306 56 1.95594 57.5309 0.744141 59.9546L13.7442 33.9545C14.956 31.5309 17.4331 30 20.1428 30H72.683C78.1787 30 83.2064 26.9061 85.683 22L72.7937 47.7203C70.2505 52.7954 65.0601 56 59.3834 56Z" fill="url(#paint4_linear_85_131)"/>
</g>
<defs>
<filter id="filter0_f_85_131" x="-0.0939453" y="19.5999" width="87.5766" height="41.5531" filterUnits="userSpaceOnUse" color-interpolation-filters="sRGB">
<feFlood flood-opacity="0" result="BackgroundImageFix"/>
<feBlend mode="normal" in="SourceGraphic" in2="BackgroundImageFix" result="shape"/>
<feGaussianBlur stdDeviation="0.4" result="effect1_foregroundBlur_85_131"/>
</filter>
<filter id="filter1_f_85_131" x="-7.29395" y="14" width="101.977" height="55.9531" filterUnits="userSpaceOnUse" color-interpolation-filters="sRGB">
<feFlood flood-opacity="0" result="BackgroundImageFix"/>
<feBlend mode="normal" in="SourceGraphic" in2="BackgroundImageFix" result="shape"/>
<feGaussianBlur stdDeviation="4" result="effect1_foregroundBlur_85_131"/>
</filter>
<linearGradient id="paint0_linear_85_131" x1="5.68279" y1="56" x2="15.6828" y2="94" gradientUnits="userSpaceOnUse">
<stop stop-color="#159455"/>
<stop offset="1" stop-color="#3FBDA9"/>
</linearGradient>
<linearGradient id="paint1_linear_85_131" x1="21.5813" y1="3.52273" x2="79.5979" y2="29.3167" gradientUnits="userSpaceOnUse">
<stop stop-color="#23A794"/>
<stop offset="0.568447" stop-color="#007A84"/>
<stop offset="1" stop-color="#005158"/>
</linearGradient>
<linearGradient id="paint2_linear_85_131" x1="70.6826" y1="38" x2="60.1826" y2="10.5" gradientUnits="userSpaceOnUse">
<stop stop-color="#004A8B"/>
<stop offset="0.405563" stop-color="#105DA8" stop-opacity="0.500243"/>
<stop offset="1" stop-color="#2170C6" stop-opacity="0"/>
</linearGradient>
<linearGradient id="paint3_linear_85_131" x1="13.6826" y1="34" x2="66.1826" y2="60" gradientUnits="userSpaceOnUse">
<stop stop-color="#7FD9A2"/>
<stop offset="0.196063" stop-color="#47BF79"/>
<stop offset="0.713946" stop-color="#009280"/>
<stop offset="1" stop-color="#007A84"/>
</linearGradient>
<linearGradient id="paint4_linear_85_131" x1="13.183" y1="35" x2="25.183" y2="41" gradientUnits="userSpaceOnUse">
<stop stop-color="#A8E47C" stop-opacity="0.86"/>
<stop offset="0.367474" stop-color="#87D152" stop-opacity="0.2"/>
<stop offset="1" stop-color="#58BE5A" stop-opacity="0"/>
</linearGradient>
</defs>
</svg>
